<?xml version="1.0" standalone="no"?>
<!DOCTYPE svg PUBLIC "-//W3C//DTD SVG 20010904//EN"
 "http://www.w3.org/TR/2001/REC-SVG-20010904/DTD/svg10.dtd">
<svg version="1.0" xmlns="http://www.w3.org/2000/svg"
 width="512.000000pt" height="512.000000pt" viewBox="0 0 512.000000 512.000000"
 preserveAspectRatio="xMidYMid meet">
<metadata>
Created by potrace 1.11, written by Peter Selinger 2001-2013
</metadata>
<g transform="translate(0.000000,512.000000) scale(0.100000,-0.100000)"
fill="#000000" stroke="none">
<path d="M275 5047 c14 -61 126 -452 162 -562 53 -163 96 -242 287 -525 387
-574 736 -1040 1075 -1440 144 -168 380 -430 389 -430 4 0 69 62 145 138 l137
138 -101 109 c-455 492 -928 1088 -1268 1595 -208 312 -465 633 -699 872 -116
120 -133 133 -127 105z"/>
<path d="M4693 4917 c-254 -269 -476 -549 -674 -847 -235 -353 -609 -842 -938
-1225 -515 -599 -1134 -1191 -1644 -1568 l-38 -29 -47 31 c-70 45 -188 96
-263 115 -95 23 -100 22 -93 -16 31 -176 132 -363 275 -508 83 -84 245 -193
342 -230 74 -29 193 -58 201 -49 3 3 -3 42 -14 88 -20 84 -72 208 -110 260
l-20 30 117 87 c716 532 1399 1238 2080 2154 272 365 676 956 736 1075 48 97
85 205 166 487 68 239 86 309 79 307 -2 -1 -72 -74 -155 -162z"/>
<path d="M2787 1762 l-138 -138 115 -103 c165 -147 358 -305 533 -438 l153
-115 -21 -29 c-47 -66 -106 -218 -123 -316 -5 -29 -3 -33 17 -33 12 0 56 9 96
20 340 95 643 424 705 768 7 38 2 39 -92 17 -71 -17 -192 -70 -264 -116 l-47
-31 -83 63 c-167 126 -406 326 -614 515 -45 41 -85 74 -90 74 -5 0 -71 -62
-147 -138z"/>
<path d="M925 834 c-81 -67 -417 -320 -539 -406 -103 -74 -138 -148 -116 -246
28 -125 166 -205 296 -173 53 14 127 62 340 222 167 126 444 349 444 358 0 3
-19 17 -43 30 -23 13 -68 44 -99 68 -51 39 -77 66 -180 185 l-23 27 -80 -65z"/>
<path d="M4049 823 c-69 -83 -155 -158 -231 -201 -27 -15 -47 -30 -45 -33 8
-22 381 -317 590 -468 144 -105 194 -126 272 -118 183 19 280 203 182 348 -12
19 -99 89 -192 156 -93 67 -236 175 -318 240 -83 65 -160 126 -172 135 -22 17
-23 16 -86 -59z"/>
</g>
</svg>
